<?xml version="1.0" encoding="UTF-8"?>
<svg width="364px" height="70px" viewBox="0 0 364 70" version="1.1" xmlns="http://www.w3.org/2000/svg" xmlns:xlink="http://www.w3.org/1999/xlink">
    <!-- Generator: Sketch 51.3 (57544) - http://www.bohemiancoding.com/sketch -->
    <title>SVG Layer</title>
    <desc>Created with Sketch.</desc>
    <defs></defs>
    <g id="Page-1" stroke="none" stroke-width="1" fill="none" fill-rule="evenodd">
        <g id="SVG-Layer" fill="#20663F" fill-rule="nonzero">
            <g id="Group">
                <g id="SvgjsG1987" transform="translate(0.000000, 0.000000)">
                    <g id="Group">
                        <g id="Shape">
                            <path d="M61.7848,47.033 C61.145,46.9476 60.27,46.893 59.2844,46.8328 C57.043,46.697 53.977,46.5122 52.4076,45.7576 C50.4994,44.8406 49.0308,42.9534 47.4782,40.9556 C46.0908,39.172 44.6558,37.3268 42.7868,36.0598 C37.6054,32.5472 24.1318,33.026 18.9084,36.001 C16.4416,37.4052 15.9208,39.8692 15.5022,41.8488 C15.0808,43.8466 14.7532,45.1024 13.3938,45.7562 C12.229,46.3148 10.2312,46.5696 8.6268,46.774 C7.931,46.8608 7.2856,46.9448 6.7536,47.04 C2.3982,47.8212 0,50.7962 0,55.4204 C0,60.5234 2.7468,63.8204 7,63.8204 L11.3414,63.8204 C11.9924,67.011 14.819,69.4204 18.2,69.4204 C21.581,69.4204 24.4076,67.011 25.0586,63.8204 L44.9428,63.8204 C45.5924,67.011 48.4204,69.4204 51.8,69.4204 C55.1796,69.4204 58.009,67.011 58.6572,63.8204 L61.6,63.8204 C66.2326,63.8204 70,60.053 70,55.4204 C70,51.1238 66.6218,47.6742 61.7848,47.033 Z M18.2,66.6204 C15.8844,66.6204 14,64.736 14,62.4204 C14,60.1048 15.8844,58.2204 18.2,58.2204 C20.5156,58.2204 22.4,60.1048 22.4,62.4204 C22.4,64.736 20.5156,66.6204 18.2,66.6204 Z M51.8,66.6204 C49.4844,66.6204 47.6,64.736 47.6,62.4204 C47.6,60.1048 49.4844,58.2204 51.8,58.2204 C54.1156,58.2204 56,60.1048 56,62.4204 C56,64.736 54.1156,66.6204 51.8,66.6204 Z M61.6,61.0204 L58.6572,61.0204 C58.0076,57.8298 55.1796,55.4204 51.8,55.4204 C48.4204,55.4204 45.591,57.8298 44.9428,61.0204 L25.0586,61.0204 C24.4076,57.8298 21.581,55.4204 18.2,55.4204 C14.819,55.4204 11.9924,57.8298 11.3414,61.0204 L7,61.0204 C3.2088,61.0204 2.8,57.1046 2.8,55.4204 C2.8,52.1276 4.2126,50.3412 7.2478,49.798 C7.742,49.7098 8.337,49.6342 8.9796,49.553 C10.8794,49.3108 13.034,49.0378 14.6076,48.2818 C17.2774,46.998 17.8136,44.464 18.2434,42.4298 C18.6634,40.4376 18.9882,39.1804 20.2944,38.4356 C24.6344,35.966 37.023,35.5334 41.216,38.3782 C42.7182,39.3974 43.9572,40.9878 45.269,42.6734 C46.9532,44.8392 48.6948,47.0778 51.1966,48.2804 C53.2616,49.2716 56.5082,49.469 59.1164,49.6258 C60.0236,49.6804 60.8286,49.728 61.418,49.8064 C64.295,50.1914 67.2,52.073 67.2,55.4204 C67.2,58.5088 64.6884,61.0204 61.6,61.0204 Z"></path>
                            <path d="M40.6,25.2 C42.5194,25.2 44.2582,24.4216 45.5252,23.1658 L50.9236,26.7652 C50.5918,27.58 50.4,28.4662 50.4,29.4 C50.4,33.2598 53.5402,36.4 57.4,36.4 C61.2598,36.4 64.4,33.2598 64.4,29.4 C64.4,25.5402 61.2598,22.4 57.4,22.4 C55.4806,22.4 53.7418,23.1784 52.4748,24.4342 L47.0764,20.8348 C47.4082,20.02 47.6,19.1338 47.6,18.2 C47.6,17.2662 47.4082,16.38 47.0764,15.5652 L52.4748,11.9672 C53.7418,13.2216 55.4806,14 57.4,14 C61.2598,14 64.4,10.8598 64.4,7 C64.4,3.1402 61.2598,0 57.4,0 C53.5402,0 50.4,3.1402 50.4,7 C50.4,7.9338 50.5918,8.82 50.9236,9.6348 L45.5252,13.2328 C44.2582,11.9784 42.5194,11.2 40.6,11.2 C36.7402,11.2 33.6,14.3402 33.6,18.2 C33.6,22.0598 36.7402,25.2 40.6,25.2 Z M57.4,25.2 C59.7156,25.2 61.6,27.0844 61.6,29.4 C61.6,31.7156 59.7156,33.6 57.4,33.6 C55.0844,33.6 53.2,31.7156 53.2,29.4 C53.2,27.0844 55.0844,25.2 57.4,25.2 Z M57.4,2.8 C59.7156,2.8 61.6,4.6844 61.6,7 C61.6,9.3156 59.7156,11.2 57.4,11.2 C55.0844,11.2 53.2,9.3156 53.2,7 C53.2,4.6844 55.0844,2.8 57.4,2.8 Z M40.6,14 C42.9156,14 44.8,15.8844 44.8,18.2 C44.8,20.5156 42.9156,22.4 40.6,22.4 C38.2844,22.4 36.4,20.5156 36.4,18.2 C36.4,15.8844 38.2844,14 40.6,14 Z"></path>
                        </g>
                    </g>
                </g>
                <g id="SvgjsG1988" transform="translate(79.944665, 1.758887)">
                    <path d="M31.0671931,48.5375484 C31.0671931,50.5401834 30.6851114,52.4242414 29.920948,54.1897222 C29.1567847,55.9552031 28.1291167,57.496705 26.8379441,58.8142281 C25.5467716,60.1317511 24.0184448,61.1725943 22.252964,61.9367576 C20.4874831,62.700921 18.6034252,63.0830027 16.6007902,63.0830027 C14.5981552,63.0830027 12.7140972,62.700921 10.9486164,61.9367576 C9.18313552,61.1725943 7.64163357,60.1317511 6.32411054,58.8142281 C5.00658751,57.496705 3.96574432,55.9552031 3.20158096,54.1897222 C2.43741761,52.4242414 2.05533593,50.5401834 2.05533593,48.5375484 L2.05533593,27.5889323 C2.05533593,26.9565212 2.27931484,26.4031615 2.72727267,25.9288532 C3.1752305,25.4545449 3.74176541,25.2173908 4.42687738,25.2173908 C5.05928844,25.2173908 5.59947288,25.4545449 6.04743071,25.9288532 C6.49538854,26.4031615 6.71936745,26.9565212 6.71936745,27.5889323 L6.71936745,48.5375484 C6.71936745,49.9077724 6.98287206,51.1857697 7.50988127,52.3715404 C8.03689048,53.5573112 8.74835292,54.5981544 9.64426858,55.49407 C10.5401842,56.3899857 11.5810274,57.1014481 12.7667982,57.6284573 C13.9525689,58.1554666 15.2305662,58.4189712 16.6007902,58.4189712 C17.9710141,58.4189712 19.2490115,58.1554666 20.4347822,57.6284573 C21.6205529,57.1014481 22.6613961,56.3899857 23.5573118,55.49407 C24.4532274,54.5981544 25.1646899,53.5573112 25.6916991,52.3715404 C26.2187083,51.1857697 26.4822129,49.9077724 26.4822129,48.5375484 L26.4822129,27.5889323 C26.4822129,26.9565212 26.7061918,26.4031615 27.1541497,25.9288532 C27.6021075,25.4545449 28.1422919,25.2173908 28.774703,25.2173908 C29.407114,25.2173908 29.9472985,25.4545449 30.3952563,25.9288532 C30.8432141,26.4031615 31.0671931,26.9565212 31.0671931,27.5889323 L31.0671931,48.5375484 Z M76.5928838,60.9486154 C76.5928838,61.5810264 76.3689049,62.1212109 75.9209471,62.5691687 C75.4729893,63.0171265 74.9328048,63.2411054 74.3003938,63.2411054 C73.6679827,63.2411054 73.114623,63.0171265 72.6403147,62.5691687 C72.1660065,62.1212109 71.9288523,61.5810264 71.9288523,60.9486154 L71.9288523,56.521738 C70.0843201,58.6824758 67.9104071,60.3425548 65.4071133,61.501975 C62.9038196,62.6613953 60.2555983,63.2411054 57.4624494,63.2411054 C54.8274034,63.2411054 52.3372849,62.7404467 49.9920939,61.7391292 C47.6469029,60.7378117 45.6047422,59.3675877 43.8656118,57.6284573 C42.1264814,55.8893269 40.7562574,53.8603415 39.7549399,51.5415009 C38.7536224,49.2226604 38.2529637,46.7457171 38.2529637,44.110671 C38.2529637,41.475625 38.7536224,38.9855065 39.7549399,36.6403155 C40.7562574,34.2951245 42.1264814,32.2529638 43.8656118,30.5138334 C45.6047422,28.774703 47.6469029,27.404479 49.9920939,26.4031615 C52.3372849,25.401844 54.8274034,24.9011853 57.4624494,24.9011853 C60.2555983,24.9011853 62.9038196,25.4808954 65.4071133,26.6403157 C67.9104071,27.7997359 70.0843201,29.459815 71.9288523,31.6205527 L71.9288523,5.53359673 C71.9288523,4.90118567 72.1660065,4.36100123 72.6403147,3.9130434 C73.114623,3.46508557 73.6679827,3.24110665 74.3003938,3.24110665 C74.9328048,3.24110665 75.4729893,3.46508557 75.9209471,3.9130434 C76.3689049,4.36100123 76.5928838,4.90118567 76.5928838,5.53359673 L76.5928838,60.9486154 Z M71.9288523,44.110671 C71.9288523,42.108036 71.5467706,40.2239781 70.7826073,38.4584973 C70.0184439,36.6930164 68.990776,35.1515144 67.6996034,33.8339914 C66.4084308,32.5164684 64.8801041,31.4756252 63.1146232,30.7114618 C61.3491424,29.9472985 59.4650844,29.5652168 57.4624494,29.5652168 C55.4598144,29.5652168 53.5757565,29.9472985 51.8102756,30.7114618 C50.0447948,31.4756252 48.5032928,32.5164684 47.1857698,33.8339914 C45.8682468,35.1515144 44.8274036,36.6930164 44.0632402,38.4584973 C43.2990769,40.2239781 42.9169952,42.108036 42.9169952,44.110671 C42.9169952,46.1133061 43.2990769,47.997364 44.0632402,49.7628448 C44.8274036,51.5283257 45.8682468,53.0566524 47.1857698,54.347825 C48.5032928,55.6389976 50.0447948,56.6666655 51.8102756,57.4308289 C53.5757565,58.1949922 55.4598144,58.5770739 57.4624494,58.5770739 C59.4650844,58.5770739 61.3491424,58.1949922 63.1146232,57.4308289 C64.8801041,56.6666655 66.4084308,55.6389976 67.6996034,54.347825 C68.990776,53.0566524 70.0184439,51.5283257 70.7826073,49.7628448 C71.5467706,47.997364 71.9288523,46.1133061 71.9288523,44.110671 Z M93.5810258,60.9486154 C93.5810258,61.4229237 93.3965726,61.897232 93.0276661,62.3715402 C92.6060587,62.9512504 92.0263486,63.2411054 91.2885357,63.2411054 C90.6034237,63.2411054 90.0368888,63.0171265 89.588931,62.5691687 C89.1409732,62.1212109 88.9169943,61.5810264 88.9169943,60.9486154 L88.9169943,27.1936753 C88.9169943,26.5612643 89.1409732,26.0210798 89.588931,25.573122 C90.0368888,25.1251642 90.6034237,24.9011853 91.2885357,24.9011853 C91.9209468,24.9011853 92.4611312,25.1251642 92.909089,25.573122 C93.3570469,26.0210798 93.5810258,26.5612643 93.5810258,27.1936753 L93.5810258,29.1699599 C94.1607359,27.9578387 95.1093525,26.943346 96.4268755,26.1264817 C97.7443986,25.3096174 99.0882721,24.9011853 100.458496,24.9011853 C102.830037,24.9011853 104.740446,25.4545449 106.189721,26.5612643 C107.638997,27.6679836 108.758891,29.3017122 109.549405,31.46245 C109.81291,32.2002629 109.747033,32.9249005 109.351776,33.636363 C108.95652,34.3478254 108.310933,34.7035566 107.415018,34.7035566 C106.624504,34.7035566 106.031618,34.4137015 105.636362,33.8339914 C105.241105,33.2542813 104.845848,32.6218702 104.450591,31.9367583 C104.055334,31.2516463 103.528325,30.6455857 102.869563,30.1185765 C102.210802,29.5915673 101.222659,29.3807636 99.9051363,29.4861654 C99.0619216,29.5388663 98.2582325,29.7760205 97.4940692,30.1976279 C96.7299058,30.6192352 96.0579691,31.1594197 95.478259,31.8181812 C94.8985488,32.4769427 94.4374158,33.2015804 94.0948598,33.9920942 C93.7523038,34.782608 93.5810258,35.5994723 93.5810258,36.442687 L93.5810258,60.9486154 Z M123.612646,13.6758891 C123.612646,14.6245056 123.27009,15.4413699 122.584978,16.1264819 C121.899866,16.8115939 121.083002,17.1541499 120.134385,17.1541499 C119.185768,17.1541499 118.368904,16.8115939 117.683792,16.1264819 C116.99868,15.4413699 116.656124,14.6245056 116.656124,13.6758891 C116.656124,12.6745716 116.99868,11.8577073 117.683792,11.2252962 C118.368904,10.5928852 119.185768,10.2766796 120.134385,10.2766796 C121.135702,10.2766796 121.965742,10.5928852 122.624503,11.2252962 C123.283265,11.8577073 123.612646,12.6745716 123.612646,13.6758891 Z M122.505926,60.9486154 C122.505926,61.5810264 122.268772,62.1212109 121.794464,62.5691687 C121.320156,63.0171265 120.766796,63.2411054 120.134385,63.2411054 C119.501974,63.2411054 118.961789,63.0171265 118.513832,62.5691687 C118.065874,62.1212109 117.841895,61.5810264 117.841895,60.9486154 L117.841895,27.1936753 C117.841895,26.5612643 118.065874,26.0210798 118.513832,25.573122 C118.961789,25.1251642 119.501974,24.9011853 120.134385,24.9011853 C120.766796,24.9011853 121.320156,25.1251642 121.794464,25.573122 C122.268772,26.0210798 122.505926,26.5612643 122.505926,27.1936753 L122.505926,60.9486154 Z M161.786558,27.1936753 C161.786558,27.4571799 161.733857,27.747035 161.628455,28.0632405 L148.426874,61.8181806 C148.005267,62.7667972 147.267454,63.2411054 146.213436,63.2411054 C145.791828,63.2411054 145.370221,63.1093531 144.948614,62.8458485 C144.527006,62.5823439 144.237151,62.2397879 144.079048,61.8181806 L130.877468,28.0632405 C130.772066,27.747035 130.719365,27.4571799 130.719365,27.1936753 C130.719365,26.5612643 130.943344,26.0210798 131.391302,25.573122 C131.83926,25.1251642 132.379444,24.9011853 133.011855,24.9011853 C133.486163,24.9011853 133.934121,25.0329376 134.355729,25.2964422 C134.777336,25.5599468 135.067191,25.9025028 135.225294,26.3241101 L146.213436,56.1264811 L157.280629,26.3241101 C157.649536,25.3754936 158.360998,24.9011853 159.415017,24.9011853 C160.047428,24.9011853 160.600787,25.1251642 161.075096,25.573122 C161.549404,26.0210798 161.786558,26.5612643 161.786558,27.1936753 Z M203.675885,42.450592 C203.728586,43.0830031 203.517782,43.6231875 203.043474,44.0711454 C202.569166,44.5191032 202.015806,44.7430821 201.383395,44.7430821 L170.079048,44.7430821 C170.18445,46.6930162 170.632408,48.511198 171.422921,50.1976274 C172.213435,51.8840569 173.267454,53.3465075 174.584977,54.5849791 C175.9025,55.8234508 177.417651,56.7984178 179.130431,57.5098803 C180.843211,58.2213427 182.674568,58.5770739 184.624502,58.5770739 C185.731222,58.5770739 186.732539,58.4848473 187.628455,58.3003941 C188.52437,58.1159409 189.367585,57.839261 190.158099,57.4703546 C190.948613,57.1014481 191.712776,56.6534903 192.450589,56.1264811 C193.188402,55.5994719 193.978916,54.9934113 194.82213,54.3082993 C195.085635,54.0974956 195.335964,53.9393929 195.573119,53.833991 C195.810273,53.7285892 196.113303,53.6758882 196.482209,53.6758882 C197.114621,53.6758882 197.66798,53.8998672 198.142289,54.347825 C198.616597,54.7957828 198.853751,55.3359673 198.853751,55.9683783 C198.853751,56.3372848 198.787875,56.6403151 198.656122,56.8774692 C198.52437,57.1146234 198.353092,57.3649527 198.142289,57.6284573 C197.404476,58.524373 196.495385,59.3148868 195.415016,59.9999988 C194.334647,60.6851108 193.188402,61.2648209 191.976281,61.7391292 C190.76416,62.2134375 189.525688,62.5823439 188.260866,62.8458485 C186.996044,63.1093531 185.783922,63.2411054 184.624502,63.2411054 C181.989456,63.2411054 179.499338,62.7404467 177.154147,61.7391292 C174.808956,60.7378117 172.766795,59.3675877 171.027665,57.6284573 C169.288534,55.8893269 167.91831,53.8603415 166.916993,51.5415009 C165.915675,49.2226604 165.415016,46.7457171 165.415016,44.110671 C165.415016,41.475625 165.915675,38.9855065 166.916993,36.6403155 C167.91831,34.2951245 169.288534,32.2529638 171.027665,30.5138334 C172.766795,28.774703 174.808956,27.404479 177.154147,26.4031615 C179.499338,25.401844 181.989456,24.9011853 184.624502,24.9011853 C187.154146,24.9011853 189.538863,25.3227926 191.778652,26.1660074 C194.018441,27.0092221 196.007901,28.2081681 197.747032,29.7628453 C199.486162,31.3175224 200.882736,33.1488794 201.936755,35.2569163 C202.990773,37.3649531 203.570483,39.6837937 203.675885,42.2134379 L203.675885,42.450592 Z M198.537545,40.0790506 C198.115938,38.4980229 197.457177,37.0619228 196.561261,35.7707503 C195.665345,34.4795777 194.598152,33.3728584 193.35968,32.4505922 C192.121208,31.5283261 190.76416,30.8168637 189.288534,30.3162049 C187.812908,29.8155462 186.258231,29.5652168 184.624502,29.5652168 C182.990774,29.5652168 181.422921,29.8287214 179.920945,30.3557306 C178.418969,30.8827398 177.06192,31.6073775 175.849799,32.5296436 C174.637678,33.4519097 173.570484,34.5586291 172.648218,35.8498017 C171.725952,37.1409742 171.054015,38.5507239 170.632408,40.0790506 L198.537545,40.0790506 Z M215.288533,59.7628446 C215.288533,60.7114612 214.945977,61.5283255 214.260865,62.2134375 C213.575753,62.8985495 212.758889,63.2411054 211.810272,63.2411054 C210.861656,63.2411054 210.044792,62.8985495 209.35968,62.2134375 C208.674568,61.5283255 208.332012,60.7114612 208.332012,59.7628446 C208.332012,58.7615271 208.661392,57.9446629 209.320154,57.3122518 C209.978915,56.6798408 210.808955,56.3636352 211.810272,56.3636352 C212.81159,56.3636352 213.641629,56.6798408 214.300391,57.3122518 C214.959152,57.9446629 215.288533,58.7615271 215.288533,59.7628446 Z M249.272722,27.1936753 C249.272722,27.4571799 249.220021,27.747035 249.114619,28.0632405 L235.913039,61.8181806 C235.491431,62.7667972 234.753618,63.2411054 233.6996,63.2411054 C233.277993,63.2411054 232.856385,63.1093531 232.434778,62.8458485 C232.013171,62.5823439 231.723315,62.2397879 231.565213,61.8181806 L218.363632,28.0632405 C218.25823,27.747035 218.205529,27.4571799 218.205529,27.1936753 C218.205529,26.5612643 218.429508,26.0210798 218.877466,25.573122 C219.325424,25.1251642 219.865608,24.9011853 220.498019,24.9011853 C220.972328,24.9011853 221.420285,25.0329376 221.841893,25.2964422 C222.2635,25.5599468 222.553355,25.9025028 222.711458,26.3241101 L233.6996,56.1264811 L244.766793,26.3241101 C245.1357,25.3754936 245.847162,24.9011853 246.901181,24.9011853 C247.533592,24.9011853 248.086952,25.1251642 248.56126,25.573122 C249.035568,26.0210798 249.272722,26.5612643 249.272722,27.1936753 Z M283.573117,60.9486154 C283.573117,61.5810264 283.349138,62.1212109 282.90118,62.5691687 C282.453222,63.0171265 281.913038,63.2411054 281.280627,63.2411054 C280.648216,63.2411054 280.094856,63.0171265 279.620548,62.5691687 C279.146239,62.1212109 278.909085,61.5810264 278.909085,60.9486154 L278.909085,38.4189716 C278.909085,37.2068504 278.671931,36.0606053 278.197623,34.9802365 C277.723315,33.8998676 277.090904,32.9644262 276.30039,32.1739124 C275.509876,31.3833986 274.574435,30.7509875 273.494066,30.2766792 C272.413697,29.8023709 271.267452,29.5652168 270.055331,29.5652168 C268.843209,29.5652168 267.696964,29.8023709 266.616595,30.2766792 C265.536227,30.7509875 264.600785,31.3833986 263.810271,32.1739124 C263.019758,32.9644262 262.387347,33.8998676 261.913038,34.9802365 C261.43873,36.0606053 261.201576,37.2068504 261.201576,38.4189716 C261.201576,38.5243734 261.175225,38.6429505 261.122524,38.7747028 C261.069823,38.9064551 261.043473,39.0513826 261.043473,39.2094854 L261.043473,60.9486154 C261.043473,61.5810264 260.819494,62.1212109 260.371536,62.5691687 C259.923578,63.0171265 259.383394,63.2411054 258.750983,63.2411054 C258.065871,63.2411054 257.499336,63.0171265 257.051378,62.5691687 C256.60342,62.1212109 256.379441,61.5810264 256.379441,60.9486154 L256.379441,26.7193671 C256.379441,26.0342551 256.60342,25.4677202 257.051378,25.0197623 C257.499336,24.5718045 258.065871,24.3478256 258.750983,24.3478256 C259.330693,24.3478256 259.778651,24.4795779 260.094856,24.7430825 C260.411062,25.0065871 260.635041,25.3359679 260.766793,25.7312248 C260.898545,26.1264817 260.977597,26.5612643 261.003947,27.0355726 C261.030298,27.5098809 261.043473,27.9578387 261.043473,28.3794461 C262.255594,27.2727267 263.638993,26.4163368 265.193671,25.8102762 C266.748348,25.2042156 268.368901,24.9011853 270.055331,24.9011853 C271.899863,24.9011853 273.638993,25.2569165 275.272722,25.9683789 C276.90645,26.6798414 278.34255,27.6548084 279.581022,28.8932801 C280.819494,30.1317517 281.794461,31.5678518 282.505923,33.2015804 C283.217386,34.8353089 283.573117,36.5744393 283.573117,38.4189716 L283.573117,60.9486154 Z" id="Shape"></path>
                </g>
            </g>
        </g>
    </g>
</svg>